<?xml version="1.0"?>
<svg xmlns="http://www.w3.org/2000/svg" version="1.1" viewBox="0 0 224 224" width="24px" height="24px">
  <g fill="none" fill-rule="nonzero" stroke="none" stroke-width="1" stroke-linecap="butt" stroke-linejoin="miter"
     stroke-miterlimit="10" stroke-dasharray="" stroke-dashoffset="0" font-family="none" font-weight="none"
     font-size="none" text-anchor="none" style="mix-blend-mode: normal">
    <path d="M0,224v-224h224v224z" fill="none"/>
    <g fill="#3498db">
      <path
          d="M102.66667,18.66667v37.33333h18.66667v-16.78906c36.70355,4.76298 65.33333,34.75073 65.33333,72.78906c0,41.35288 -33.31378,74.66667 -74.66667,74.66667c-41.35288,0 -74.66667,-33.31378 -74.66667,-74.66667c0,-8.54 1.41983,-16.93038 4.22917,-24.90104c0.59733,-1.67067 1.35946,-3.27031 2.07812,-4.90365l-13.81771,-14.16406c-2.24,4.16267 -4.27423,8.42712 -5.85156,12.86979c-3.51867,9.97733 -5.30469,20.44029 -5.30469,31.09896c0,51.43912 41.89422,93.33333 93.33333,93.33333c51.43912,0 93.33333,-41.89422 93.33333,-93.33333c0,-51.43912 -41.89422,-93.33333 -93.33333,-93.33333zM53.41146,38.75521l-13.36198,13.03385l6.52604,6.6901l52.33593,53.63021l6.50782,6.67187l0.09115,-0.09114c1.73779,1.69049 4.06519,2.63845 6.48958,2.64323c5.15466,0 9.33333,-4.17868 9.33333,-9.33333c0.00001,-2.93132 -1.37714,-5.69235 -3.71875,-7.45573l-5.34114,-5.46875l-52.33594,-53.63021z"/>
    </g>
  </g>
</svg>
