<?xml version="1.0"?>
<svg xmlns="http://www.w3.org/2000/svg" xmlns:xlink="http://www.w3.org/1999/xlink" version="1.1" viewBox="0 0 224 224" width="24px" height="24px"><g fill="none" fill-rule="nonzero" stroke="none" stroke-width="1" stroke-linecap="butt" stroke-linejoin="miter" stroke-miterlimit="10" stroke-dasharray="" stroke-dashoffset="0" font-family="none" font-weight="none" font-size="none" text-anchor="none" style="mix-blend-mode: normal"><path d="M0,224v-224h224v224z" fill="none"/><g fill="#3498db"><g id="surface1"><path d="M79.33333,46.66667c-38.64583,0 -70,31.35417 -70,70c0,38.64583 31.35417,70 70,70c11.84896,0 22.89583,-2.95312 32.66667,-8.16667c9.77083,5.17709 20.85417,8.16667 32.66667,8.16667c38.64583,0 70,-31.35417 70,-70c0,-38.64583 -31.35417,-70 -70,-70c-11.8125,0 -22.89583,2.98959 -32.66667,8.16667c-9.77083,-5.21354 -20.81771,-8.16667 -32.66667,-8.16667zM144.66667,65.33333c5.39583,0 10.57292,0.80209 15.45833,2.33333c20.78125,6.5625 35.875,26.06771 35.875,49c0,22.93229 -15.09375,42.4375 -35.875,49c-4.88541,1.53125 -10.0625,2.33333 -15.45833,2.33333c-5.32291,0 -10.35417,-0.83854 -15.16667,-2.33333c12.32292,-12.61458 19.83333,-29.96875 19.83333,-49c0,-19.03125 -7.51041,-36.38541 -19.83333,-49c4.8125,-1.49479 9.84375,-2.33333 15.16667,-2.33333z"/></g></g></g></svg>
