<?xml version="1.0"?>
<svg xmlns="http://www.w3.org/2000/svg" xmlns:xlink="http://www.w3.org/1999/xlink" version="1.1" viewBox="0 0 192 192" width="24px" height="24px"><g fill="none" fill-rule="nonzero" stroke="none" stroke-width="1" stroke-linecap="butt" stroke-linejoin="miter" stroke-miterlimit="10" stroke-dasharray="" stroke-dashoffset="0" font-family="none" font-weight="none" font-size="none" text-anchor="none" style="mix-blend-mode: normal"><path d="M0,192v-192h192v192z" fill="none"/><g fill="#3498db"><path d="M95.875,15.89062c-0.38756,0.0084 -0.77399,0.04495 -1.15625,0.10938h-62.71875c-4.4181,0.00044 -7.99956,3.5819 -8,8v46.65625c-0.14279,0.86393 -0.14279,1.74544 0,2.60938v45.39062c-0.14279,0.86393 -0.14279,1.74544 0,2.60938v46.73438c0.00044,4.4181 3.5819,7.99956 8,8h62.65625c0.86393,0.14279 1.74544,0.14279 2.60938,0h62.73438c4.4181,-0.00044 7.99956,-3.5819 8,-8v-46.65625c0.14279,-0.86393 0.14279,-1.74544 0,-2.60938v-45.39063c0.14279,-0.86393 0.14279,-1.74544 0,-2.60938v-46.73438c-0.00044,-4.4181 -3.5819,-7.99956 -8,-8h-62.76562c-0.44919,-0.07508 -0.90396,-0.11167 -1.35938,-0.10938zM40,32h48v32h-48zM104,32h48v32h-48zM40,80h48v32h-48zM104,80h48v32h-48zM40,128h48v32h-48zM104,128h48v32h-48z"/></g></g></svg>
