<?xml version="1.0"?>
<svg xmlns="http://www.w3.org/2000/svg" xmlns:xlink="http://www.w3.org/1999/xlink" version="1.1" viewBox="0 0 224 224" width="24px" height="24px"><g fill="none" fill-rule="nonzero" stroke="none" stroke-width="1" stroke-linecap="butt" stroke-linejoin="miter" stroke-miterlimit="10" stroke-dasharray="" stroke-dashoffset="0" font-family="none" font-weight="none" font-size="none" text-anchor="none" style="mix-blend-mode: normal"><path d="M0,224v-224h224v224z" fill="none"/><g fill="#3498db"><g id="surface1"><path d="M28,28l6.41667,45.79167l12.83333,-13.125l36.75,36.75v70.58333h18.66667v-78.45833l-2.625,-2.91667l-39.375,-39.375l13.125,-12.83333zM196,28l-45.79167,6.41667l13.125,12.83333l-39.375,39.375l-2.625,2.91667v78.45833h18.66667v-70.58333l36.75,-36.75l12.83333,13.125zM18.66667,102.66667v18.66667h9.33333v56c0,15.34896 12.65104,28 28,28h112c15.34896,0 28,-12.65104 28,-28v-56h9.33333v-18.66667h-28v74.66667c0,5.17709 -4.15625,9.33333 -9.33333,9.33333h-112c-5.17708,0 -9.33333,-4.15625 -9.33333,-9.33333v-74.66667z"/></g></g></g></svg>
