<?xml version="1.0"?>
<svg xmlns="http://www.w3.org/2000/svg" xmlns:xlink="http://www.w3.org/1999/xlink" version="1.1" viewBox="0 0 192 192" width="24px" height="24px"><g fill="none" fill-rule="nonzero" stroke="none" stroke-width="1" stroke-linecap="butt" stroke-linejoin="miter" stroke-miterlimit="10" stroke-dasharray="" stroke-dashoffset="0" font-family="none" font-weight="none" font-size="none" text-anchor="none" style="mix-blend-mode: normal"><path d="M0,192v-192h192v192z" fill="none"/><g fill="#3498db"><path d="M48,16c-8.824,0 -16,7.176 -16,16v128c0,8.824 7.176,16 16,16h53.46875c-2.368,-4.976 -4.02013,-10.344 -4.82813,-16h-48.64062v-128h56v40h40v24.625c2.616,-0.376 5.28,-0.64062 8,-0.64062c2.72,0 5.384,0.26462 8,0.64062v-32.625l-48,-48zM64,96v16h48.84375c4.4,-4.312 9.53225,-7.85925 15.15625,-10.53125v-5.46875zM152,112c-22.088,0 -40,17.912 -40,40c0,22.088 17.912,40 40,40c22.088,0 40,-17.912 40,-40c0,-22.088 -17.912,-40 -40,-40zM64,128v16h32.64062c0.808,-5.656 2.46013,-11.024 4.82813,-16zM144,128h16v16h16v16h-16v16h-16v-16h-16v-16h16z"/></g></g></svg>
