<?xml version="1.0"?>
<svg xmlns="http://www.w3.org/2000/svg" xmlns:xlink="http://www.w3.org/1999/xlink" version="1.1" viewBox="0 0 172 172" width="24px" height="24px"><g fill="none" fill-rule="nonzero" stroke="none" stroke-width="1" stroke-linecap="butt" stroke-linejoin="miter" stroke-miterlimit="10" stroke-dasharray="" stroke-dashoffset="0" font-family="none" font-weight="none" font-size="none" text-anchor="none" style="mix-blend-mode: normal"><path d="M0,172v-172h172v172z" fill="none"/><g fill="#666666"><path d="M114.66667,14.33333l16.43294,16.43294l-8.20247,8.20247c-3.54388,-1.92658 -7.52669,-3.13542 -11.81381,-3.13542c-13.76826,0 -25.08333,11.31508 -25.08333,25.08333c0,13.76826 11.31508,25.08333 25.08333,25.08333c13.76826,0 25.08333,-11.31508 25.08333,-25.08333c0,-4.28712 -1.20884,-8.26992 -3.13542,-11.8138l8.20247,-8.20247l16.43294,16.43294v-43zM111.08333,50.16667c6.02195,0 10.75,4.72805 10.75,10.75c0,6.02195 -4.72805,10.75 -10.75,10.75c-6.02195,0 -10.75,-4.72805 -10.75,-10.75c0,-6.02195 4.72805,-10.75 10.75,-10.75zM60.91667,86c-13.76826,0 -25.08333,11.31508 -25.08333,25.08333c0,4.28711 1.20884,8.26992 3.13542,11.81381l-8.20247,8.20247l-16.43294,-16.43294v43h43l-16.43294,-16.43294l8.20247,-8.20247c3.54388,1.92658 7.52669,3.13542 11.8138,3.13542c13.76826,0 25.08333,-11.31508 25.08333,-25.08333c0,-13.76826 -11.31508,-25.08333 -25.08333,-25.08333zM60.91667,100.33333c6.02195,0 10.75,4.72805 10.75,10.75c0,6.02195 -4.72805,10.75 -10.75,10.75c-6.02195,0 -10.75,-4.72805 -10.75,-10.75c0,-6.02195 4.72805,-10.75 10.75,-10.75z"/></g></g></svg>
