<?xml version="1.0"?>
<svg xmlns="http://www.w3.org/2000/svg" xmlns:xlink="http://www.w3.org/1999/xlink" version="1.1" viewBox="0 0 192 192" width="24px" height="24px"><g fill="none" fill-rule="nonzero" stroke="none" stroke-width="1" stroke-linecap="butt" stroke-linejoin="miter" stroke-miterlimit="10" stroke-dasharray="" stroke-dashoffset="0" font-family="none" font-weight="none" font-size="none" text-anchor="none" style="mix-blend-mode: normal"><path d="M0,192v-192h192v192z" fill="none"/><g fill="#3498db"><path d="M48,56c-22.088,0 -40,17.912 -40,40c0,22.088 17.912,40 40,40h32v-16h-32c-13.256,0 -24,-10.744 -24,-24c0,-13.256 10.744,-24 24,-24h32v-16zM144.71875,62.34375l-9.79688,12.65625c4.888,3.776 18.87763,14.23162 23.76563,18.01562c10.48799,8.104 12.40087,23.16825 4.29687,33.65625c-8.104,10.488 -23.16825,12.4165 -33.65625,4.3125c-4.888,-3.776 -18.862,-14.23162 -23.75,-18.01562l-9.78126,12.65625c4.504,3.48 19.238,14.52762 23.75,18.01562c17.472,13.512 42.59738,10.2925 56.10938,-7.1875c13.512,-17.48 10.2845,-42.58175 -7.1875,-56.09375c-4.504,-3.48 -19.238,-14.52763 -23.75,-18.01563zM56,88v16h72v-16z"/></g></g></svg>
