<?xml version="1.0"?>
<svg xmlns="http://www.w3.org/2000/svg" xmlns:xlink="http://www.w3.org/1999/xlink" version="1.1" viewBox="0 0 192 192" width="24px" height="24px"><g fill="none" fill-rule="nonzero" stroke="none" stroke-width="1" stroke-linecap="butt" stroke-linejoin="miter" stroke-miterlimit="10" stroke-dasharray="" stroke-dashoffset="0" font-family="none" font-weight="none" font-size="none" text-anchor="none" style="mix-blend-mode: normal"><path d="M0,192v-192h192v192z" fill="none"/><g fill="#3498db"><path d="M80,16c-4.4181,0.00044 -7.99956,3.5819 -8,8v8h-16c-13.15976,0 -24,10.84024 -24,24v16h-8c-4.4181,0.00044 -7.99956,3.5819 -8,8v32c0.00044,4.4181 3.5819,7.99956 8,8h8v16c0,13.15976 10.84024,24 24,24h16v8c0.00044,4.4181 3.5819,7.99956 8,8h32c4.4181,-0.00044 7.99956,-3.5819 8,-8v-8h16c13.15976,0 24,-10.84024 24,-24v-16h8c4.4181,-0.00044 7.99956,-3.5819 8,-8v-32c-0.00044,-4.4181 -3.5819,-7.99956 -8,-8h-8v-16c0,-13.15976 -10.84024,-24 -24,-24h-16v-8c-0.00044,-4.4181 -3.5819,-7.99956 -8,-8zM88,32h16v16h-16zM56,48h16v8c0.00044,4.4181 3.5819,7.99956 8,8h32c4.4181,-0.00044 7.99956,-3.5819 8,-8v-8h16c4.52024,0 8,3.47976 8,8v16h-8c-4.4181,0.00044 -7.99956,3.5819 -8,8v32c0.00044,4.4181 3.5819,7.99956 8,8h8v16c0,4.52024 -3.47976,8 -8,8h-16v-8c-0.00044,-4.4181 -3.5819,-7.99956 -8,-8h-32c-4.4181,0.00044 -7.99956,3.5819 -8,8v8h-16c-4.52024,0 -8,-3.47976 -8,-8v-16h8c4.4181,-0.00044 7.99956,-3.5819 8,-8v-32c-0.00044,-4.4181 -3.5819,-7.99956 -8,-8h-8v-16c0,-4.52024 3.47976,-8 8,-8zM32,88h16v16h-16zM144,88h16v16h-16zM88,144h16v16h-16z"/></g></g></svg>
