<?xml version="1.0"?>
<svg xmlns="http://www.w3.org/2000/svg" version="1.1" viewBox="0 0 224 224" width="24px" height="24px">
  <g fill="none" fill-rule="nonzero" stroke="none" stroke-width="1" stroke-linecap="butt" stroke-linejoin="miter"
     stroke-miterlimit="10" stroke-dasharray="" stroke-dashoffset="0" font-family="none" font-weight="none"
     font-size="none" text-anchor="none" style="mix-blend-mode: normal">
    <path d="M0,224v-224h224v224z" fill="none"/>
    <g fill="#3498db">
      <path
          d="M149.33333,28c-5.152,0 -9.33333,4.18133 -9.33333,9.33333v13.32552l-56.01823,42.54687c-0.07184,-5.09023 -4.2079,-9.20573 -9.3151,-9.20573h-37.33333c-5.152,0 -9.33333,4.18133 -9.33333,9.33333v37.33333c0,5.152 4.18133,9.33333 9.33333,9.33333h37.33333c5.152,0 9.33333,-4.18133 9.33333,-9.33333l56,42v14c0,5.152 4.18133,9.33333 9.33333,9.33333h37.33333c5.152,0 9.33333,-4.18133 9.33333,-9.33333v-37.33333c0,-5.152 -4.18133,-9.33333 -9.33333,-9.33333h-37.33333c-5.152,0 -9.33333,4.18133 -9.33333,9.33333l-49.83854,-37.36979l49.83854,-37.86198v0.5651c0,5.152 4.18133,9.33333 9.33333,9.33333h37.33333c5.152,0 9.33333,-4.18133 9.33333,-9.33333v-37.33333c0,-5.152 -4.18133,-9.33333 -9.33333,-9.33333z"/>
    </g>
  </g>
</svg>
