<?xml version="1.0"?>
<svg xmlns="http://www.w3.org/2000/svg" xmlns:xlink="http://www.w3.org/1999/xlink" version="1.1" viewBox="0 0 192 192" width="24px" height="24px"><g fill="none" fill-rule="nonzero" stroke="none" stroke-width="1" stroke-linecap="butt" stroke-linejoin="miter" stroke-miterlimit="10" stroke-dasharray="" stroke-dashoffset="0" font-family="none" font-weight="none" font-size="none" text-anchor="none" style="mix-blend-mode: normal"><path d="M0,192v-192h192v192z" fill="none"/><g fill="#3498db"><path d="M32,24c-4.4181,0.00044 -7.99956,3.5819 -8,8v128c0.00044,4.4181 3.5819,7.99956 8,8h48c4.4181,-0.00044 7.99956,-3.5819 8,-8v-40h-16v32h-32v-112h32v32h16v-40c-0.00044,-4.4181 -3.5819,-7.99956 -8,-8zM112,24c-4.416,0 -8,3.584 -8,8v17.375l11.3125,11.3125l4.6875,4.6875v-25.375h32v112h-32v-25.375l-4.6875,4.6875l-11.3125,11.3125v17.375c0,4.416 3.584,8 8,8h48c4.416,0 8,-3.584 8,-8v-128c0,-4.416 -3.584,-8 -8,-8zM104,72v16h-48v16h48v16l24,-24z"/></g></g></svg>
