<?xml version="1.0"?>
<svg xmlns="http://www.w3.org/2000/svg" version="1.1" viewBox="0 0 224 224" width="24px" height="24px">
  <g fill="none" fill-rule="nonzero" stroke="none" stroke-width="1" stroke-linecap="butt" stroke-linejoin="miter"
     stroke-miterlimit="10" stroke-dasharray="" stroke-dashoffset="0" font-family="none" font-weight="none"
     font-size="none" text-anchor="none" style="mix-blend-mode: normal">
    <path d="M0,224v-224h224v224z" fill="none"/>
    <g fill="#3498db">
      <path
          d="M46.66667,28c-10.20192,0 -18.66667,8.46475 -18.66667,18.66667v18.66667h18.66667v-18.66667h18.66667v-18.66667zM84,28v18.66667h18.66667v-18.66667zM121.33333,28v18.66667h18.66667v-18.66667zM158.66667,28v18.66667h18.66667v18.66667h18.66667v-18.66667c0,-10.20192 -8.46475,-18.66667 -18.66667,-18.66667zM65.33333,65.33333v18.66667h93.33333v-18.66667zM28,84v18.66667h18.66667v-18.66667zM177.33333,84v18.66667h18.66667v-18.66667zM65.33333,102.66667v18.66667h65.33333v-18.66667zM195.90885,120.25782l-18.66667,0.09114l0.09115,19.6875l18.66667,-0.07291zM28,121.33333v18.66667h18.66667v-18.66667zM65.33333,140v18.66667h93.33333v-18.66667zM28,158.66667v18.66667c0,10.20192 8.46475,18.66667 18.66667,18.66667h18.66667v-18.66667h-18.66667v-18.66667zM177.33333,158.66667v18.66667h-18.66667v18.66667h18.66667c10.20192,0 18.66667,-8.46475 18.66667,-18.66667v-18.66667zM84,177.33333v18.66667h18.66667v-18.66667zM121.33333,177.33333v18.66667h18.66667v-18.66667z"/>
    </g>
  </g>
</svg>
