<?xml version="1.0"?>
<svg xmlns="http://www.w3.org/2000/svg" version="1.1" viewBox="0 0 224 224" width="24px" height="24px">
  <g fill="none" fill-rule="nonzero" stroke="none" stroke-width="1" stroke-linecap="butt" stroke-linejoin="miter"
     stroke-miterlimit="10" stroke-dasharray="" stroke-dashoffset="0" font-family="none" font-weight="none"
     font-size="none" text-anchor="none" style="mix-blend-mode: normal">
    <path d="M0,224v-224h224v224z" fill="none"/>
    <g fill="#3498db">
      <g id="surface1">
        <path
            d="M112,18.66667c-15.45833,0 -28,12.54167 -28,28c0,15.45833 12.54167,28 28,28c15.45833,0 28,-12.54167 28,-28c0,-15.45833 -12.54167,-28 -28,-28zM84,84c-31.02604,0 -56,24.97396 -56,56v18.66667h18.66667v-18.66667c0,-18.48438 12.28646,-32.99479 29.45833,-36.45833c-0.875,2.69792 -1.45833,5.46875 -1.45833,8.45833v46.66667h18.66667v-46.66667c0,-5.17708 4.15625,-9.33333 9.33333,-9.33333h18.66667c5.17709,0 9.33333,4.15625 9.33333,9.33333v46.66667h18.66667v-46.66667c0,-2.98958 -0.58333,-5.76041 -1.45833,-8.45833c17.17188,3.46354 29.45833,17.97396 29.45833,36.45833v18.66667h18.66667v-18.66667c0,-31.02604 -24.97396,-56 -56,-56zM37.33333,168c-10.31771,0 -18.66667,8.34896 -18.66667,18.66667c0,10.31771 8.34896,18.66667 18.66667,18.66667c10.31771,0 18.66667,-8.34896 18.66667,-18.66667c0,-10.31771 -8.34896,-18.66667 -18.66667,-18.66667zM84,168c-10.31771,0 -18.66667,8.34896 -18.66667,18.66667c0,10.31771 8.34896,18.66667 18.66667,18.66667c10.31771,0 18.66667,-8.34896 18.66667,-18.66667c0,-10.31771 -8.34896,-18.66667 -18.66667,-18.66667zM140,168c-10.31771,0 -18.66667,8.34896 -18.66667,18.66667c0,10.31771 8.34896,18.66667 18.66667,18.66667c10.31771,0 18.66667,-8.34896 18.66667,-18.66667c0,-10.31771 -8.34896,-18.66667 -18.66667,-18.66667zM186.66667,168c-10.31771,0 -18.66667,8.34896 -18.66667,18.66667c0,10.31771 8.34896,18.66667 18.66667,18.66667c10.31771,0 18.66667,-8.34896 18.66667,-18.66667c0,-10.31771 -8.34896,-18.66667 -18.66667,-18.66667z"/>
      </g>
    </g>
  </g>
</svg>
