<?xml version="1.0"?>
<svg xmlns="http://www.w3.org/2000/svg" xmlns:xlink="http://www.w3.org/1999/xlink" version="1.1" viewBox="0 0 224 224" width="24px" height="24px"><g fill="none" fill-rule="nonzero" stroke="none" stroke-width="1" stroke-linecap="butt" stroke-linejoin="miter" stroke-miterlimit="10" stroke-dasharray="" stroke-dashoffset="0" font-family="none" font-weight="none" font-size="none" text-anchor="none" style="mix-blend-mode: normal"><path d="M0,224v-224h224v224z" fill="none"/><g fill="#3498db"><g id="surface1"><path d="M37.33333,46.66667c-10.31771,0 -18.66667,8.34896 -18.66667,18.66667v93.33333c0,10.31771 8.34896,18.66667 18.66667,18.66667h149.33333c10.31771,0 18.66667,-8.34896 18.66667,-18.66667v-93.33333c0,-10.31771 -8.34896,-18.66667 -18.66667,-18.66667zM46.66667,84h37.33333v56h-37.33333zM56,93.33333v37.33333h18.66667v-37.33333zM121.33333,98c7.72917,0 14,6.27083 14,14c0,7.72917 -6.27083,14 -14,14c-7.72917,0 -14,-6.27083 -14,-14c0,-7.72917 6.27083,-14 14,-14zM177.33333,98c7.72917,0 14,6.27083 14,14c0,7.72917 -6.27083,14 -14,14c-7.72917,0 -14,-6.27083 -14,-14c0,-7.72917 6.27083,-14 14,-14z"/></g></g></g></svg>
