<?xml version="1.0"?>
<svg xmlns="http://www.w3.org/2000/svg" xmlns:xlink="http://www.w3.org/1999/xlink" version="1.1" viewBox="0 0 192 192" width="24px" height="24px"><g fill="none" fill-rule="nonzero" stroke="none" stroke-width="1" stroke-linecap="butt" stroke-linejoin="miter" stroke-miterlimit="10" stroke-dasharray="" stroke-dashoffset="0" font-family="none" font-weight="none" font-size="none" text-anchor="none" style="mix-blend-mode: normal"><path d="M0,192v-192h192v192z" fill="none"/><g fill="#3498db"><path d="M48,16c-8.7445,0 -16,7.2555 -16,16v128c0,8.7445 7.2555,16 16,16h96c8.7445,0 16,-7.2555 16,-16v-128c0,-8.7445 -7.2555,-16 -16,-16zM48,32h96v128h-96zM96,40c-22.4,0 -40,17.6 -40,40c0,5.448 1.14212,10.55438 3.07812,15.23438l28.92188,-7.23438l-7.23438,28.92187c4.68,1.936 9.78638,3.07813 15.23438,3.07813c22.4,0 40,-17.6 40,-40c0,-22.4 -17.6,-40 -40,-40zM96,70.35938c5.792,0 9.64062,3.84862 9.64062,9.64062c0,5.792 -3.84862,9.64062 -9.64062,9.64062c-5.792,0 -9.64062,-3.84862 -9.64062,-9.64062c0,-5.792 3.84862,-9.64062 9.64062,-9.64062z"/></g></g></svg>
