<?xml version="1.0" encoding="UTF-8"?>
<svg xmlns="http://www.w3.org/2000/svg" xmlns:xlink="http://www.w3.org/1999/xlink" width="24pt" height="24pt" viewBox="0 0 24 24" version="1.1">
<g id="surface1421012">
<path style=" stroke:none;fill-rule:nonzero;fill:rgb(20.392157%,59.607843%,85.882353%);fill-opacity:1;" d="M 3 3 L 3 21 L 21 21 L 21 19 L 17 19 L 17 17 L 15 17 L 15 19 L 11 19 L 11 13 L 9 13 L 9 15 L 7 15 L 7 17 L 9 17 L 9 19 L 7 19 L 7 17 L 5 17 L 5 13 L 7 13 L 7 9 L 5 9 L 5 7 L 7 7 L 7 5 L 5 5 L 5 3 Z M 7 5 L 9 5 L 9 7 L 11 7 L 11 5 L 15 5 L 15 3 L 7 3 Z M 15 5 L 15 7 L 17 7 L 17 5 Z M 17 5 L 19 5 L 19 7 L 21 7 L 21 3 L 17 3 Z M 19 7 L 17 7 L 17 13 L 21 13 L 21 11 L 19 11 Z M 17 13 L 15 13 L 15 15 L 17 15 Z M 17 15 L 17 17 L 21 17 L 21 15 Z M 15 15 L 13 15 L 13 17 L 15 17 Z M 15 7 L 11 7 L 11 9 L 13 9 L 13 11 L 15 11 Z M 13 11 L 11 11 L 11 13 L 13 13 Z M 11 11 L 11 9 L 9 9 L 9 11 Z M 9 9 L 9 7 L 7 7 L 7 9 Z M 9 9 "/>
</g>
</svg>
