<?xml version="1.0"?>
<svg xmlns="http://www.w3.org/2000/svg" version="1.1" viewBox="0 0 224 224" width="24px" height="24px">
  <g fill="none" fill-rule="nonzero" stroke="none" stroke-width="1" stroke-linecap="butt" stroke-linejoin="miter"
     stroke-miterlimit="10" stroke-dasharray="" stroke-dashoffset="0" font-family="none" font-weight="none"
     font-size="none" text-anchor="none" style="mix-blend-mode: normal">
    <path d="M0,224v-224h224v224z" fill="none"/>
    <g fill="#3498db">
      <g id="surface1">
        <path
            d="M18.66667,18.66667v186.66667h186.66667v-18.66667h-168v-74.66667h18.66667v-18.66667h-18.66667v-74.66667zM121.33333,28c-15.67708,0.03646 -34.63541,20.67188 -48.125,56h96.25c-13.48958,-35.4375 -32.41146,-56.03646 -48.125,-56zM74.66667,93.33333v18.66667h18.66667v-18.66667zM112,93.33333v18.66667h18.66667v-18.66667zM149.33333,93.33333v18.66667h18.66667v-18.66667zM186.66667,93.33333v18.66667h18.66667v-18.66667zM62.41667,121.33333c-3.5,16.88021 -5.86979,35.58333 -6.41667,56h130.66667c-0.61979,-20.41667 -2.91667,-39.11979 -6.41667,-56z"/>
      </g>
    </g>
  </g>
</svg>
