<?xml version="1.0"?>
<svg xmlns="http://www.w3.org/2000/svg" xmlns:xlink="http://www.w3.org/1999/xlink" version="1.1" viewBox="0 0 224 224" width="24px" height="24px"><g fill="none" fill-rule="nonzero" stroke="none" stroke-width="1" stroke-linecap="butt" stroke-linejoin="miter" stroke-miterlimit="10" stroke-dasharray="" stroke-dashoffset="0" font-family="none" font-weight="none" font-size="none" text-anchor="none" style="mix-blend-mode: normal"><path d="M0,224v-224h224v224z" fill="none"/><g fill="#3498db"><path d="M56,18.66667c-10.31333,0 -18.66667,8.35333 -18.66667,18.66667v28h149.33333v-28c0,-10.31333 -8.35333,-18.66667 -18.66667,-18.66667zM37.33333,84v56h109.06511c8.86667,-5.88933 19.49223,-9.33333 30.93489,-9.33333c3.18267,0 6.29067,0.32521 9.33333,0.83854v-47.50521zM168,149.33333v28h-28v18.66667h28v28h18.66667v-28h28v-18.66667h-28v-28zM37.33333,158.66667v28c0,10.31333 8.35333,18.66667 18.66667,18.66667h68.59635c-2.072,-5.84267 -3.26302,-12.11467 -3.26302,-18.66667c0,-10.21067 2.77754,-19.75867 7.54688,-28z"/></g></g></svg>
