<?xml version="1.0"?>
<svg xmlns="http://www.w3.org/2000/svg" xmlns:xlink="http://www.w3.org/1999/xlink" version="1.1" viewBox="0 0 224 224" width="24px" height="24px"><g fill="none" fill-rule="nonzero" stroke="none" stroke-width="1" stroke-linecap="butt" stroke-linejoin="miter" stroke-miterlimit="10" stroke-dasharray="" stroke-dashoffset="0" font-family="none" font-weight="none" font-size="none" text-anchor="none" style="mix-blend-mode: normal"><path d="M0,224v-224h224v224z" fill="none"/><g fill="#3498db"><path d="M172.66667,18.66667c-23.19333,0 -42,18.80667 -42,42c0,4.21214 0.81456,8.19485 1.96875,12.03125l-15.96875,15.96875l28,28l15.96875,-15.96875c3.8364,1.1542 7.8191,1.96875 12.03125,1.96875c23.19333,0 42,-18.80667 42,-42c0,-6.15067 -1.39344,-11.96256 -3.77344,-17.22656l-27.72656,27.72656l-21,-21l27.72656,-27.72656c-5.264,-2.38 -11.07589,-3.77344 -17.22656,-3.77344zM82.76042,65.33333c-7.42,0 -14.54221,2.94846 -19.79687,8.20312l-45.42708,45.42709c-10.92933,10.92933 -10.92933,28.66441 0,39.59375l41.2526,41.28906c5.684,5.69333 14.3691,7.10267 21.5651,3.5l50.54948,-25.32031l13.03385,-12.43229c7.56933,-7.23334 7.693,-19.28618 0.29167,-26.68751l-55.90885,-55.90885l18.11979,-17.66406z"/></g></g></svg>
