<?xml version="1.0"?>
<svg xmlns="http://www.w3.org/2000/svg" xmlns:xlink="http://www.w3.org/1999/xlink" version="1.1" viewBox="0 0 224 224" width="24px" height="24px"><g fill="none" fill-rule="nonzero" stroke="none" stroke-width="1" stroke-linecap="butt" stroke-linejoin="miter" stroke-miterlimit="10" stroke-dasharray="" stroke-dashoffset="0" font-family="none" font-weight="none" font-size="none" text-anchor="none" style="mix-blend-mode: normal"><path d="M0,224v-224h224v224z" fill="none"/><g fill="#3498db"><g id="surface1"><path d="M168,18.66667h-112c-10.31771,0 -18.66667,8.34896 -18.66667,18.66667v149.33333c0,10.31771 8.34896,18.66667 18.66667,18.66667h112c10.31771,0 18.66667,-8.34896 18.66667,-18.66667v-149.33333c0,-10.31771 -8.34896,-18.66667 -18.66667,-18.66667zM168,37.33333v18.66667h-9.33333v-9.33333h-18.66667v9.33333h-28v-9.33333h-18.66667v9.33333h-9.33333v-9.33333h-18.66667v9.33333h-9.33333v-18.66667zM140,140v9.33333h-9.33333v-9.33333h-18.66667v9.33333h-28v-9.33333h-18.66667v9.33333h-9.33333v-28h9.33333v9.33333h18.66667v-9.33333h9.33333v9.33333h18.66667v-9.33333h56v28h-9.33333v-9.33333zM112,102.66667v-9.33333h-18.66667v9.33333h-9.33333v-9.33333h-18.66667v9.33333h-9.33333v-28h9.33333v9.33333h18.66667v-9.33333h9.33333v9.33333h18.66667v-9.33333h28v9.33333h18.66667v-9.33333h9.33333v28zM56,186.66667v-18.66667h9.33333v9.33333h18.66667v-9.33333h28v9.33333h18.66667v-9.33333h9.33333v9.33333h18.66667v-9.33333h9.33333v18.66667z"/></g></g></g></svg>
