<?xml version="1.0"?>
<svg xmlns="http://www.w3.org/2000/svg" xmlns:xlink="http://www.w3.org/1999/xlink" version="1.1" viewBox="0 0 224 224" width="24px" height="24px"><g fill="none" fill-rule="nonzero" stroke="none" stroke-width="1" stroke-linecap="butt" stroke-linejoin="miter" stroke-miterlimit="10" stroke-dasharray="" stroke-dashoffset="0" font-family="none" font-weight="none" font-size="none" text-anchor="none" style="mix-blend-mode: normal"><path d="M0,224v-224h224v224z" fill="none"/><g fill="#3498db"><path d="M140,18.66667c-12.44133,0 -24.03115,3.549 -33.92448,9.625c1.96,-0.14 3.92715,-0.29167 5.92448,-0.29167c46.396,0 84,37.604 84,84c0,1.99733 -0.15167,3.96448 -0.29167,5.92448c6.076,-9.89333 9.625,-21.48315 9.625,-33.92448c0,-36.02667 -29.316,-65.33333 -65.33333,-65.33333zM112,46.66667c-12.44133,0 -24.03115,3.549 -33.92448,9.625c1.96,-0.14 3.92715,-0.29167 5.92448,-0.29167c46.396,0 84,37.604 84,84c0,1.99733 -0.15167,3.94625 -0.29167,5.90625c6.076,-9.89332 9.625,-21.47425 9.625,-33.90625c0,-36.02667 -29.316,-65.33333 -65.33333,-65.33333zM84,74.66667c-35.97205,0 -65.33333,29.36128 -65.33333,65.33333c0,35.97206 29.36128,65.33333 65.33333,65.33333c35.97206,0 65.33333,-29.36128 65.33333,-65.33333c0,-35.97206 -29.36128,-65.33333 -65.33333,-65.33333zM84,93.33333c25.88383,0 46.66667,20.78283 46.66667,46.66667c0,25.88383 -20.78283,46.66667 -46.66667,46.66667c-25.88384,0 -46.66667,-20.78283 -46.66667,-46.66667c0,-25.88383 20.78283,-46.66667 46.66667,-46.66667z"/></g></g></svg>
