<?xml version="1.0"?>
<svg xmlns="http://www.w3.org/2000/svg" version="1.1" viewBox="0 0 224 224" width="24px" height="24px">
  <g fill="none" fill-rule="nonzero" stroke="none" stroke-width="1" stroke-linecap="butt" stroke-linejoin="miter"
     stroke-miterlimit="10" stroke-dasharray="" stroke-dashoffset="0" font-family="none" font-weight="none"
     font-size="none" text-anchor="none" style="mix-blend-mode: normal">
    <path d="M0,224v-224h224v224z" fill="none"/>
    <g fill="#3498db">
      <path
          d="M112,18.66667c-51.464,0 -93.33333,41.86933 -93.33333,93.33333c0,51.464 41.86933,93.33333 93.33333,93.33333c51.464,0 93.33333,-41.86933 93.33333,-93.33333h-18.66667c0,41.16933 -33.49733,74.66667 -74.66667,74.66667c-41.16933,0 -74.66667,-33.49733 -74.66667,-74.66667c0,-41.16933 33.49733,-74.66667 74.66667,-74.66667c20.58925,0 39.22542,8.40445 52.73698,21.92969l-24.73698,24.73698h65.33333v-65.33333l-27.43489,27.4349c-16.88177,-16.92306 -40.16371,-27.4349 -65.89844,-27.4349z"/>
    </g>
  </g>
</svg>
