<?xml version="1.0"?>
<svg xmlns="http://www.w3.org/2000/svg" xmlns:xlink="http://www.w3.org/1999/xlink" version="1.1" viewBox="0 0 224 224" width="24px" height="24px"><g fill="none" fill-rule="nonzero" stroke="none" stroke-width="1" stroke-linecap="butt" stroke-linejoin="miter" stroke-miterlimit="10" stroke-dasharray="" stroke-dashoffset="0" font-family="none" font-weight="none" font-size="none" text-anchor="none" style="mix-blend-mode: normal"><path d="M0,224v-224h224v224z" fill="none"/><g id="original-icon" fill="#3498db" opacity="0" visibility="hidden"><path d="M37.33333,65.33333c-10.20192,0 -18.66667,8.46475 -18.66667,18.66667v56c0,10.20192 8.46475,18.66667 18.66667,18.66667h149.33333c10.20192,0 18.66667,-8.46475 18.66667,-18.66667v-56c0,-10.20192 -8.46475,-18.66667 -18.66667,-18.66667zM37.33333,84h149.33333v56h-149.33333z"/></g><g id="subtracted-icon" fill="#3498db"><path d="M186.66667,65.33333c10.20192,0 18.66667,8.46475 18.66667,18.66667l0,46.66667c0,-10.304 -8.36267,-18.66667 -18.66667,-18.66667v-28h-149.33333v56l112,0v9.33333h-18.66667c-6.90477,0 -12.93779,3.75518 -16.16687,9.33333h-77.16646c-10.20192,0 -18.66667,-8.46475 -18.66667,-18.66667v-56c0,-10.20192 8.46475,-18.66667 18.66667,-18.66667z"/></g><g><g id="Filled_3_" fill="#3498db"><path d="M224,186.66667h-37.33333v37.33333h-18.66667v-37.33333h-37.33333v-18.66667h37.33333v-37.33333h18.66667v37.33333h37.33333z"/></g><g id="Filled_3_" fill="#000000" opacity="0"><path d="M242.66667,168v18.66667c0,10.304 -8.36267,18.66667 -18.66667,18.66667h-18.66667v18.66667c0,10.304 -8.36267,18.66667 -18.66667,18.66667h-18.66667c-10.304,0 -18.66667,-8.36267 -18.66667,-18.66667v-18.66667h-18.66667c-10.304,0 -18.66667,-8.36267 -18.66667,-18.66667v-18.66667c0,-10.304 8.36267,-18.66667 18.66667,-18.66667h18.66667v-18.66667c0,-10.304 8.36267,-18.66667 18.66667,-18.66667h18.66667c10.304,0 18.66667,8.36267 18.66667,18.66667v18.66667h18.66667c10.304,0 18.66667,8.36267 18.66667,18.66667z"/></g></g></g></svg>
