<?xml version="1.0"?>
<svg xmlns="http://www.w3.org/2000/svg" xmlns:xlink="http://www.w3.org/1999/xlink" version="1.1" viewBox="0 0 224 224" width="24px" height="24px"><g fill="none" fill-rule="nonzero" stroke="none" stroke-width="1" stroke-linecap="butt" stroke-linejoin="miter" stroke-miterlimit="10" stroke-dasharray="" stroke-dashoffset="0" font-family="none" font-weight="none" font-size="none" text-anchor="none" style="mix-blend-mode: normal"><path d="M0,224v-224h224v224z" fill="none"/><g fill="#3498db"><path d="M28,28c-10.20192,0 -18.66667,8.46475 -18.66667,18.66667v121.33333h18.66667v-121.33333h149.33333v-18.66667zM65.33333,65.33333c-5.70267,0 -10.75696,2.63054 -14.18229,6.67188l79.51562,49.32812l78.87761,-50.09375c-3.40667,-3.612 -8.19627,-5.90625 -13.54427,-5.90625zM214.66667,86.64323l-84,53.35677l-84,-52.11719v89.45052c0,10.29467 8.372,18.66667 18.66667,18.66667h65.33333v-28c0,-5.152 4.18133,-9.33333 9.33333,-9.33333h28v-18.66667c0,-5.152 4.18133,-9.33333 9.33333,-9.33333h17.0625l20.27083,20.27083zM186.66667,149.33333v28h-37.33333v18.66667h37.33333v28l37.33333,-37.33333z"/></g></g></svg>
