<?xml version="1.0"?>
<svg xmlns="http://www.w3.org/2000/svg" version="1.1" viewBox="0 0 224 224" width="24px" height="24px">
  <g fill="none" fill-rule="nonzero" stroke="none" stroke-width="1" stroke-linecap="butt" stroke-linejoin="miter"
     stroke-miterlimit="10" stroke-dasharray="" stroke-dashoffset="0" font-family="none" font-weight="none"
     font-size="none" text-anchor="none" style="mix-blend-mode: normal">
    <path d="M0,224v-224h224v224z" fill="none"/>
    <g fill="#3498db">
      <path
          d="M56,24.13542l-43.93229,43.93229l13.19792,13.19792l21.40104,-21.40104v52.13542c0,15.35305 12.64695,28 28,28h18.66667c5.27361,0 9.33333,4.05972 9.33333,9.33333v56h18.66667v-56c0,-5.27361 4.05972,-9.33333 9.33333,-9.33333h18.66667c15.35305,0 28,-12.64695 28,-28v-52.13542l21.40104,21.40104l13.19791,-13.19792l-43.93229,-43.93229l-43.93229,43.93229l13.19791,13.19792l21.40104,-21.40104v52.13542c0,5.27361 -4.05972,9.33333 -9.33333,9.33333h-18.66667c-7.17345,0 -13.68871,2.8385 -18.66667,7.34635c-4.97796,-4.50785 -11.49322,-7.34635 -18.66667,-7.34635h-18.66667c-5.27362,0 -9.33333,-4.05972 -9.33333,-9.33333v-52.13542l21.40104,21.40104l13.19791,-13.19792z"/>
    </g>
  </g>
</svg>
