<?xml version="1.0"?>
<svg xmlns="http://www.w3.org/2000/svg" xmlns:xlink="http://www.w3.org/1999/xlink" version="1.1" viewBox="0 0 224 224" width="24px" height="24px"><g fill="none" fill-rule="nonzero" stroke="none" stroke-width="1" stroke-linecap="butt" stroke-linejoin="miter" stroke-miterlimit="10" stroke-dasharray="" stroke-dashoffset="0" font-family="none" font-weight="none" font-size="none" text-anchor="none" style="mix-blend-mode: normal"><path d="M0,224v-224h224v224z" fill="none"/><g fill="#e74c3c"><path d="M177.33333,28h-130.66667c-10.31333,0 -18.66667,8.35333 -18.66667,18.66667v130.66667c0,10.31333 8.35333,18.66667 18.66667,18.66667h130.66667c10.31333,0 18.66667,-8.35333 18.66667,-18.66667v-130.66667c0,-10.31333 -8.35333,-18.66667 -18.66667,-18.66667zM158.66667,145.50667l-13.16,13.16l-33.50667,-33.50667l-33.50667,33.50667l-13.16,-13.16l33.50667,-33.50667l-33.50667,-33.50667l13.16,-13.16l33.50667,33.50667l33.50667,-33.50667l13.16,13.16l-33.50667,33.50667z"/></g></g></svg>
