<?xml version="1.0"?>
<svg xmlns="http://www.w3.org/2000/svg" xmlns:xlink="http://www.w3.org/1999/xlink" version="1.1" viewBox="0 0 192 192" width="24px" height="24px"><g fill="none" fill-rule="nonzero" stroke="none" stroke-width="1" stroke-linecap="butt" stroke-linejoin="miter" stroke-miterlimit="10" stroke-dasharray="" stroke-dashoffset="0" font-family="none" font-weight="none" font-size="none" text-anchor="none" style="mix-blend-mode: normal"><path d="M0,192v-192h192v192z" fill="none"/><g fill="#3498db"><path d="M16,24v120c0,13.232 10.768,24 24,24h44.70313c-2.048,-5.048 -3.46026,-10.408 -4.15626,-16h-40.54687c-4.408,0 -8,-3.592 -8,-8v-104h96v42.09375c5.12,-1.32 10.464,-2.09375 16,-2.09375v-56zM48,56v24h64v-24zM160,56v26.09375c5.68,1.464 11.048,3.65925 16,6.53125v-32.625zM48,96v16h40.625c3.496,-6.032 7.94062,-11.424 13.14062,-16zM144,96c-26.41491,0 -48,21.58509 -48,48c0,26.41491 21.58509,48 48,48c26.41491,0 48,-21.58509 48,-48c0,-26.41491 -21.58509,-48 -48,-48zM144,112c5.9495,0 11.43245,1.71011 16.1875,4.5l-43.6875,43.6875c-2.78989,-4.75506 -4.5,-10.238 -4.5,-16.1875c0,-17.76787 14.23213,-32 32,-32zM171.5,127.8125c2.78989,4.75506 4.5,10.238 4.5,16.1875c0,17.76787 -14.23213,32 -32,32c-5.9495,0 -11.43245,-1.71011 -16.1875,-4.5zM48,128v16h32c0,-5.536 0.77375,-10.88 2.09375,-16z"/></g></g></svg>
