<?xml version="1.0"?>
<svg xmlns="http://www.w3.org/2000/svg" version="1.1" viewBox="0 0 224 224" width="24px" height="24px">
  <g fill="none" fill-rule="nonzero" stroke="none" stroke-width="1" stroke-linecap="butt" stroke-linejoin="miter"
     stroke-miterlimit="10" stroke-dasharray="" stroke-dashoffset="0" font-family="none" font-weight="none"
     font-size="none" text-anchor="none" style="mix-blend-mode: normal">
    <path d="M0,224v-224h224v224z" fill="none"/>
    <g fill="#3498db">
      <path
          d="M37.33333,28c-5.15466,0 -9.33333,4.17868 -9.33333,9.33333c0,5.15466 4.17868,9.33333 9.33333,9.33333c5.15466,0 9.33333,-4.17868 9.33333,-9.33333c0,-5.15466 -4.17868,-9.33333 -9.33333,-9.33333zM65.33333,28v18.66667h130.66667v-18.66667zM37.33333,65.33333c-5.15466,0 -9.33333,4.17868 -9.33333,9.33333c0,5.15466 4.17868,9.33333 9.33333,9.33333c5.15466,0 9.33333,-4.17868 9.33333,-9.33333c0,-5.15466 -4.17868,-9.33333 -9.33333,-9.33333zM65.33333,65.33333v18.66667h112v-18.66667zM37.33333,102.66667c-5.15466,0 -9.33333,4.17868 -9.33333,9.33333c0,5.15466 4.17868,9.33333 9.33333,9.33333c5.15466,0 9.33333,-4.17868 9.33333,-9.33333c0,-5.15466 -4.17868,-9.33333 -9.33333,-9.33333zM65.33333,102.66667v18.66667h93.33333v-18.66667zM37.33333,140c-5.15466,0 -9.33333,4.17868 -9.33333,9.33333c0,5.15466 4.17868,9.33333 9.33333,9.33333c5.15466,0 9.33333,-4.17868 9.33333,-9.33333c0,-5.15466 -4.17868,-9.33333 -9.33333,-9.33333zM65.33333,140v18.66667h74.66667v-18.66667zM37.33333,177.33333c-5.15466,0 -9.33333,4.17868 -9.33333,9.33333c0,5.15466 4.17868,9.33333 9.33333,9.33333c5.15466,0 9.33333,-4.17868 9.33333,-9.33333c0,-5.15466 -4.17868,-9.33333 -9.33333,-9.33333zM65.33333,177.33333v18.66667h56v-18.66667z"/>
    </g>
  </g>
</svg>
