<?xml version="1.0"?>
<svg xmlns="http://www.w3.org/2000/svg" xmlns:xlink="http://www.w3.org/1999/xlink" version="1.1" viewBox="0 0 224 224" width="24px" height="24px"><g fill="none" fill-rule="nonzero" stroke="none" stroke-width="1" stroke-linecap="butt" stroke-linejoin="miter" stroke-miterlimit="10" stroke-dasharray="" stroke-dashoffset="0" font-family="none" font-weight="none" font-size="none" text-anchor="none" style="mix-blend-mode: normal"><path d="M0,224v-224h224v224z" fill="none"/><g fill="#3498db"><g id="surface1"><path d="M37.33333,28c-10.28125,0 -18.66667,8.38542 -18.66667,18.66667v74.66667c0,10.28125 8.38542,18.66667 18.66667,18.66667h19.54167c0.94792,-6.52604 3.90104,-13.05208 6.70833,-18.66667h-26.25v-74.66667h149.33333v74.66667h-26.25c3.71875,5.61459 5.76042,12.14062 6.70833,18.66667h19.54167c10.28125,0 18.66667,-8.38541 18.66667,-18.66667v-74.66667c0,-10.28125 -8.38541,-18.66667 -18.66667,-18.66667zM112,102.66667c-26.14062,0 -46.66667,20.52604 -46.66667,46.66667c0,26.14062 20.52604,46.66667 46.66667,46.66667c26.14062,0 46.66667,-20.52604 46.66667,-46.66667c0,-26.14062 -20.52604,-46.66667 -46.66667,-46.66667zM84,140h56v18.66667h-56z"/></g></g></g></svg>
