<?xml version="1.0"?>
<svg xmlns="http://www.w3.org/2000/svg" xmlns:xlink="http://www.w3.org/1999/xlink" version="1.1" viewBox="0 0 224 224" width="24px" height="24px"><g fill="none" fill-rule="nonzero" stroke="none" stroke-width="1" stroke-linecap="butt" stroke-linejoin="miter" stroke-miterlimit="10" stroke-dasharray="" stroke-dashoffset="0" font-family="none" font-weight="none" font-size="none" text-anchor="none" style="mix-blend-mode: normal"><path d="M0,224v-224h224v224z" fill="none"/><g fill="#3498db"><path d="M65.33333,9.33333c-10.31333,0 -18.66667,8.35333 -18.66667,18.66667v168c0,10.31333 8.35333,18.66667 18.66667,18.66667h93.33333c10.31333,0 18.66667,-8.35333 18.66667,-18.66667v-168c0,-10.31333 -8.35333,-18.66667 -18.66667,-18.66667zM65.33333,28h93.33333v93.33333h-93.33333zM84,46.66667v18.66667h56v-18.66667zM84,84v18.66667h56v-18.66667zM112,154c7.728,0 14,6.272 14,14c0,7.728 -6.272,14 -14,14c-7.728,0 -14,-6.272 -14,-14c0,-7.728 6.272,-14 14,-14z"/></g></g></svg>
